<?xml version="1.0" standalone="no"?><!DOCTYPE svg PUBLIC "-//W3C//DTD SVG 1.1//EN" "http://www.w3.org/Graphics/SVG/1.1/DTD/svg11.dtd"><svg t="1514438934671" class="icon" style="" viewBox="0 0 1024 1024" version="1.1" xmlns="http://www.w3.org/2000/svg" p-id="1089" xmlns:xlink="http://www.w3.org/1999/xlink" width="200" height="200"><defs><style type="text/css"></style></defs><path d="M526.051 45.966c-258.249 0-466.034 207.786-466.034 466.034s207.786 466.034 466.034 466.034c258.249 0 466.034-207.786 466.034-466.034s-207.786-466.034-466.034-466.034zM526.051 939.185c-234.946 0-427.185-192.239-427.185-427.185s192.239-427.185 427.185-427.185c234.946 0 427.185 192.239 427.185 427.185s-192.239 427.185-427.185 427.185z" p-id="1090" fill="#23AD4D"></path><path d="M768.789 622.683c-9.722-3.895-21.372-1.93-25.231 7.755-42.707 83.486-126.229 133.985-217.47 133.985-93.206 0-174.763-50.499-217.47-133.985-3.895-9.722-15.547-13.581-25.231-7.755-9.722 3.895-13.581 15.547-9.722 25.231 48.533 95.136 143.706 155.357 252.422 155.357 106.787 0 203.89-60.183 250.493-155.357 5.825-9.722 1.93-21.372-7.755-25.231z" p-id="1091" fill="#23AD4D"></path><path d="M428.949 414.897c0 32.186-26.068 58.254-58.254 58.254s-58.254-26.068-58.254-58.254c0-32.186 26.068-58.254 58.254-58.254s58.254 26.068 58.254 58.254z" p-id="1092" fill="#23AD4D"></path><path d="M739.663 414.897c0 32.186-26.068 58.254-58.254 58.254s-58.254-26.068-58.254-58.254c0-32.186 26.068-58.254 58.254-58.254s58.254 26.068 58.254 58.254z" p-id="1093" fill="#23AD4D"></path></svg>